<svg xmlns="http://www.w3.org/2000/svg" xmlns:xlink="http://www.w3.org/1999/xlink" version="1.0" x="0" y="0" width="2400" height="428.8848889475953" viewBox="100.81360046386719 112.63624755859375 138.37279907226562 24.727501068115235" preserveAspectRatio="xMidYMid meet" color-interpolation-filters="sRGB"><g><defs><linearGradient id="92" x1="0%" y1="0%" x2="100%" y2="0%"><stop offset="0%" stop-color="#fa71cd"></stop> <stop offset="100%" stop-color="#9b59b6"></stop></linearGradient><linearGradient id="93" x1="0%" y1="0%" x2="100%" y2="0%"><stop offset="0%" stop-color="#f9d423"></stop> <stop offset="100%" stop-color="#f83600"></stop></linearGradient><linearGradient id="94" x1="0%" y1="0%" x2="100%" y2="0%"><stop offset="0%" stop-color="#0064d2"></stop> <stop offset="100%" stop-color="#1cb0f6"></stop></linearGradient><linearGradient id="95" x1="0%" y1="0%" x2="100%" y2="0%"><stop offset="0%" stop-color="#f00978"></stop> <stop offset="100%" stop-color="#3f51b1"></stop></linearGradient><linearGradient id="96" x1="0%" y1="0%" x2="100%" y2="0%"><stop offset="0%" stop-color="#7873f5"></stop> <stop offset="100%" stop-color="#ec77ab"></stop></linearGradient><linearGradient id="97" x1="0%" y1="0%" x2="100%" y2="0%"><stop offset="0%" stop-color="#f9d423"></stop> <stop offset="100%" stop-color="#e14fad"></stop></linearGradient><linearGradient id="98" x1="0%" y1="0%" x2="100%" y2="0%"><stop offset="0%" stop-color="#009efd"></stop> <stop offset="100%" stop-color="#2af598"></stop></linearGradient><linearGradient id="99" x1="0%" y1="0%" x2="100%" y2="0%"><stop offset="0%" stop-color="#ffcc00"></stop> <stop offset="100%" stop-color="#00b140"></stop></linearGradient><linearGradient id="100" x1="0%" y1="0%" x2="100%" y2="0%"><stop offset="0%" stop-color="#d51007"></stop> <stop offset="100%" stop-color="#ff8177"></stop></linearGradient><linearGradient id="102" x1="0%" y1="0%" x2="100%" y2="0%"><stop offset="0%" stop-color="#a2b6df"></stop> <stop offset="100%" stop-color="#0c3483"></stop></linearGradient><linearGradient id="103" x1="0%" y1="0%" x2="100%" y2="0%"><stop offset="0%" stop-color="#7ac5d8"></stop> <stop offset="100%" stop-color="#eea2a2"></stop></linearGradient><linearGradient id="104" x1="0%" y1="0%" x2="100%" y2="0%"><stop offset="0%" stop-color="#00ecbc"></stop> <stop offset="100%" stop-color="#007adf"></stop></linearGradient><linearGradient id="105" x1="0%" y1="0%" x2="100%" y2="0%"><stop offset="0%" stop-color="#b88746"></stop> <stop offset="100%" stop-color="#fdf5a6"></stop></linearGradient></defs><g fill="#166a8f" class="icon-text-wrapper icon-svg-group iconsvg" transform="translate(102.17019653320312,113.99284553527832)"><g class="iconsvg-imagesvg" transform="translate(0,0)"><g><rect fill="#166a8f" fill-opacity="0" stroke-width="2" x="0" y="0" width="19.199999999999992" height="22.01430930104567" class="image-rect"></rect> <svg filter="url(#colors7797103599)" x="0" y="0" width="19.199999999999992" height="22.01430930104567" filtersec="colorsf6200148385" class="image-svg-svg primary" style="overflow: visible;"><svg xmlns="http://www.w3.org/2000/svg" viewBox="12.22599983215332 -0.000054836273193359375 166.8040008544922 191.25405883789062"><path d="M162.929 66.612a6 6 0 1 0-6.35 10.183c6.544 4.081 10.45 11.121 10.45 18.833s-3.906 14.752-10.45 18.833l-98.417 61.365c-6.943 4.329-15.359 4.542-22.512.573-7.154-3.97-11.425-11.225-11.425-19.406V34.262c0-8.181 4.271-15.436 11.425-19.406 7.153-3.969 15.569-3.756 22.512.573l57.292 35.723a6 6 0 1 0 6.35-10.183L64.512 5.247c-10.696-6.669-23.661-7-34.685-.883-11.021 6.116-17.601 17.293-17.601 29.898v122.73c0 12.605 6.58 23.782 17.602 29.898 5.25 2.913 10.939 4.364 16.616 4.364 6.241 0 12.467-1.754 18.068-5.247l98.417-61.365c10.082-6.287 16.101-17.133 16.101-29.015s-6.019-22.728-16.101-29.015z" fill="#000000"></path></svg></svg> <defs><filter id="colors7797103599"><feColorMatrix type="matrix" values="0 0 0 0 0.0859375  0 0 0 0 0.4140625  0 0 0 0 0.55859375  0 0 0 1 0" class="icon-feColorMatrix "></feColorMatrix></filter> <filter id="colorsf6200148385"><feColorMatrix type="matrix" values="0 0 0 0 0.99609375  0 0 0 0 0.99609375  0 0 0 0 0.99609375  0 0 0 1 0" class="icon-fecolormatrix"></feColorMatrix></filter> <filter id="colorsb9580548612"><feColorMatrix type="matrix" values="0 0 0 0 0  0 0 0 0 0  0 0 0 0 0  0 0 0 1 0" class="icon-fecolormatrix"></feColorMatrix></filter></defs></g></g> <g transform="translate(24.200000762939453,2.6428537368774414)"><g fill-rule="" class="tp-name iconsvg-namesvg"><g transform="scale(0.41999999999999976)"><g><path d="M1.68-0.56L1.68-7.85Q13.07-7.01 19.64-7.01L19.64-7.01Q20.48-7.01 21.04-7.57 21.6-8.14 21.6-8.98L21.6-8.98 21.6-10.94 9.54-10.94Q5.72-10.94 3.42-13.24 1.12-15.54 1.12-19.36L1.12-19.36 1.12-21.32Q1.12-25.14 3.42-27.44 5.72-29.74 9.54-29.74L9.54-29.74 28.61-29.74 28.61-22.44 12.9-22.44Q12.06-22.44 11.5-21.88 10.94-21.32 10.94-20.48L10.94-20.48Q10.94-19.64 11.5-19.08 12.06-18.51 12.9-18.51L12.9-18.51 23-18.51Q26.82-18.51 29.12-16.21 31.42-13.91 31.42-10.1L31.42-10.1 31.42-7.85Q31.42-4.04 29.12-1.74 26.82 0.56 23 0.56L23 0.56Q13.07 0.56 1.68-0.56L1.68-0.56ZM51.9-23.28L46.85-23.28Q44.6-23.28 44.6-21.04L44.6-21.04 44.6-17.95 54.14-17.95 54.14-21.04Q54.14-23.28 51.9-23.28L51.9-23.28ZM62.84-7.57L62.84-0.56Q52.01 0.56 43.2 0.56L43.2 0.56Q39.39 0.56 37.09-1.74 34.79-4.04 34.79-7.85L34.79-7.85 34.79-21.32Q34.79-25.53 37.17-27.91 39.55-30.3 43.76-30.3L43.76-30.3 54.98-30.3Q59.19-30.3 61.58-27.91 63.96-25.53 63.96-21.32L63.96-21.32 63.96-10.94 44.6-10.94 44.6-8.7Q44.6-7.85 45.17-7.29 45.73-6.73 46.57-6.73L46.57-6.73Q52.12-6.73 62.84-7.57L62.84-7.57ZM87.52-22.16L85.56-22.16Q82.59-22.16 78.83-21.04L78.83-21.04 78.83 0 69.01 0 69.01-29.74 77.71-29.74 78.27-26.93Q80.9-28.67 83.68-29.48 86.46-30.3 88.37-30.3L88.37-30.3 90.89-30.3Q94.71-30.3 97.01-28 99.31-25.7 99.31-21.88L99.31-21.88 99.31 0 89.49 0 89.49-20.2Q89.49-21.04 88.93-21.6 88.37-22.16 87.52-22.16L87.52-22.16ZM134.09 0L125.4 0 124.83-2.81Q122.2-1.07 119.42-0.25 116.64 0.56 114.74 0.56L114.74 0.56 112.21 0.56Q108.4 0.56 106.1-1.74 103.8-4.04 103.8-7.85L103.8-7.85 103.8-20.76Q103.8-24.97 106.18-27.35 108.56-29.74 112.77-29.74L112.77-29.74 124.27-29.74 124.27-39.27 134.09-39.27 134.09 0ZM115.58-7.57L117.54-7.57Q120.51-7.57 124.27-8.7L124.27-8.7 124.27-22.16 115.86-22.16Q113.61-22.16 113.61-19.92L113.61-19.92 113.61-9.54Q113.61-8.7 114.17-8.14 114.74-7.57 115.58-7.57L115.58-7.57ZM159.34-31.42L159.34 0 149.24 0 149.24-31.42 137.46-31.42 137.46-39.27 171.12-39.27 171.12-31.42 159.34-31.42ZM188.23-23.28L183.18-23.28Q180.94-23.28 180.94-21.04L180.94-21.04 180.94-17.95 190.48-17.95 190.48-21.04Q190.48-23.28 188.23-23.28L188.23-23.28ZM199.17-7.57L199.17-0.56Q188.35 0.56 179.54 0.56L179.54 0.56Q175.72 0.56 173.42-1.74 171.12-4.04 171.12-7.85L171.12-7.85 171.12-21.32Q171.12-25.53 173.51-27.91 175.89-30.3 180.1-30.3L180.1-30.3 191.32-30.3Q195.53-30.3 197.91-27.91 200.3-25.53 200.3-21.32L200.3-21.32 200.3-10.94 180.94-10.94 180.94-8.7Q180.94-7.85 181.5-7.29 182.06-6.73 182.9-6.73L182.9-6.73Q188.46-6.73 199.17-7.57L199.17-7.57ZM231.72-7.85L231.72-0.56Q221.22 0.56 213.2 0.56L213.2 0.56Q209.39 0.56 207.09-1.74 204.79-4.04 204.79-7.85L204.79-7.85 204.79-20.76Q204.79-24.97 207.17-27.35 209.55-29.74 213.76-29.74L213.76-29.74 231.72-29.74 231.72-22.16 216.85-22.16Q214.6-22.16 214.6-19.92L214.6-19.92 214.6-8.98Q214.6-8.14 215.17-7.57 215.73-7.01 216.57-7.01L216.57-7.01Q221.62-7.01 231.72-7.85L231.72-7.85ZM246.02-39.27L246.02-29.17Q251.47-30.3 255.56-30.3L255.56-30.3 258.09-30.3Q261.9-30.3 264.2-28 266.5-25.7 266.5-21.88L266.5-21.88 266.5 0 256.68 0 256.68-20.76Q256.68-21.6 256.12-22.16 255.56-22.72 254.72-22.72L254.72-22.72 252.76-22.72Q250.62-22.72 248.86-22.5 247.09-22.27 246.02-22.16L246.02-22.16 246.02 0 236.2 0 236.2-39.27 246.02-39.27Z" transform="translate(-1.1200000047683716, 39.27000045776367)"></path></g> </g></g> </g></g><defs v-gra="od"></defs></g></svg>